PathFileType	4	(X/Y/Z)	Static_1_OpenSim.trc																																																																																																																																								
DataRate	CameraRate	NumFrames	NumMarkers	Units	OrigDataRate	OrigDataStartFrame	OrigNumFrames																																																																																																																																				
100	100	4	46	mm	100	1	559																																																																																																																																				
Frame#	Time	R.Acromium			L.Acromium			Sternum			R.Bicep			L.Bicep			R.Elbow			L.Elbow			R.Wrist.Med			R.Wrist.Lat			L.Wrist.Med			L.Wrist.Lat			R.ASIS			R.PSIS			S2			L.PSIS			L.ASIS			R.TH1			R.TH2			R.TH3			R.Knee			R.SH1			R.SH2			R.SH3			R.SH4			R.Ankle			R.Heel			R.MT5			R.MT1			R.Toe.Tip			L.TH1			L.TH2			L.TH3			L.TH4			L.Knee			L.SH1			L.SH2			L.SH3			L.Ankle			L.Heel			L.MT5			L.MT1			L.Toe.Tip			R.MKnee			R.MAnkle			L.MKnee			L.MAnkle		
		X1	Y1	Z1	X2	Y2	Z2	X3	Y3	Z3	X4	Y4	Z4	X5	Y5	Z5	X6	Y6	Z6	X7	Y7	Z7	X8	Y8	Z8	X9	Y9	Z9	X10	Y10	Z10	X11	Y11	Z11	X12	Y12	Z12	X13	Y13	Z13	X14	Y14	Z14	X15	Y15	Z15	X16	Y16	Z16	X17	Y17	Z17	X18	Y18	Z18	X19	Y19	Z19	X20	Y20	Z20	X21	Y21	Z21	X22	Y22	Z22	X23	Y23	Z23	X24	Y24	Z24	X25	Y25	Z25	X26	Y26	Z26	X27	Y27	Z27	X28	Y28	Z28	X29	Y29	Z29	X30	Y30	Z30	X31	Y31	Z31	X32	Y32	Z32	X33	Y33	Z33	X34	Y34	Z34	X35	Y35	Z35	X36	Y36	Z36	X37	Y37	Z37	X38	Y38	Z38	X39	Y39	Z39	X40	Y40	Z40	X41	Y41	Z41	X42	Y42	Z42	X43	Y43	Z43	X44	Y44	Z44	X45	Y45	Z45	X46	Y46	Z46
																																																																																																																																											
1	0	959.9557	1474.2758	-332.7175	900.8393	1470.5674	-758.3882	1027.8386	1285.6541	-554.7518	962.7201	1254.1875	-303.1647	908.2141	1246.3969	-782.6031	905.2344	1132.8512	-253.2196	849.2429	1128.1967	-813.3021	1026.7342	897.6124	-281.7444	977.5152	888.6179	-239.5686	969.395	897.47	-800.3788	917.8711	890.7005	-837.74	1008.7746	1014.7927	-426.2882	814.8361	1047.67	-478.8538	802.5131	1037.385	-533.9551	803.9576	1045.5279	-604.5023	988.6366	1013.1052	-679.276	977.2402	766.6696	-343.7821	895.1502	766.8773	-337.6674	894.3802	656.9119	-343.5243	921.4269	523.231	-359.5982	887.8824	408.5016	-329.0403	886.0094	295.6139	-326.0592	811.8998	410.7047	-361.3548	808.989	297.8151	-351.8496	859.0782	92.1355	-349.2853	809.2816	56.1115	-423.7586	952.2153	32.815	-297.8284	1013.4866	37.6688	-392.2595	1050.4977	47.7001	-328.4103	941.5714	773.4078	-749.524	933.7543	666.9089	-749.0334	857.7265	777.6782	-742.9684	853.9593	667.839	-735.6854	887.2742	528.3347	-727.2523	873.4594	419.6874	-756.2173	792.8626	422.8269	-743.392	791.5667	312.9081	-742.2268	839.2995	92.9405	-737.5179	785.2982	52.6112	-668.0098	926.7842	32.3495	-792.012	990.7259	36.395	-696.4615	1030.9287	45.7648	-765.5163	923.9346	502.9091	-470.8316	895.7148	99.8594	-434.3111	907.243	502.7147	-618.6935	874.1795	105.3747	-654.4332
2	0.01	959.9307	1474.3099	-332.7559	900.8164	1470.462	-758.4469	1027.7777	1285.6395	-554.7942	962.6509	1254.2197	-303.1653	908.2468	1246.3638	-782.6403	905.088	1132.937	-253.2435	849.2437	1128.1606	-813.4004	1026.6078	897.6313	-281.709	977.3562	888.6342	-239.5615	969.4419	897.4486	-800.3986	917.9534	890.6011	-837.771	1008.7188	1014.8043	-426.2345	814.7936	1047.6825	-478.9131	802.4121	1037.4155	-533.9346	803.9263	1045.5549	-604.5075	988.6082	1013.1199	-679.2714	977.1681	766.6878	-343.7718	895.1013	766.905	-337.6434	894.3302	656.9354	-343.5146	921.7155	523.0872	-359.8208	887.8486	408.5059	-329.0132	885.9825	295.6248	-326.0387	811.8631	410.7174	-361.2965	809.0455	297.7886	-351.7762	859.3568	91.947	-349.4291	809.2562	56.0898	-423.7563	952.2093	32.7987	-297.8352	1013.5775	37.0389	-391.6128	1050.4967	47.7209	-328.4251	941.434	773.3408	-749.4384	933.7537	666.8905	-749.001	857.7404	777.6808	-742.9843	853.9792	667.8435	-735.7087	887.2625	528.3321	-727.2528	873.4478	419.6816	-756.2568	792.8449	422.8543	-743.4105	791.5383	312.9316	-742.2025	839.278	92.9178	-737.5126	785.279	52.5852	-668.0084	926.7703	32.3795	-792.0233	990.7238	36.3836	-696.4906	1030.8844	45.7727	-765.5036	923.8536	502.907	-470.8379	895.7309	99.8916	-434.3079	907.2398	502.706	-618.7075	874.1726	105.405	-654.4676
3	0.02	959.8863	1474.312	-332.836	900.853	1470.4004	-758.4658	1027.8404	1285.6582	-554.7562	962.598	1254.2305	-303.1963	908.3176	1246.3154	-782.6064	904.958	1132.9915	-253.2489	849.2602	1128.1028	-813.4078	1026.5188	897.9398	-281.6894	977.2595	888.7308	-239.4944	969.4987	897.3768	-800.4001	918.0317	890.5856	-837.782	1008.6733	1014.799	-426.257	814.7427	1047.6827	-478.88	802.4103	1037.4021	-533.9776	803.8511	1045.5675	-604.5906	988.6218	1013.1351	-679.2477	977.0897	766.673	-343.7311	895.0443	766.8646	-337.68	894.3185	656.9332	-343.5309	921.7373	523.0782	-359.7986	887.835	408.4899	-329.0174	885.9634	295.6257	-326.0567	811.8211	410.7188	-361.315	808.91	297.8049	-351.8857	859.356	91.8942	-349.4312	809.2452	56.1017	-423.7552	952.223	32.8131	-297.8313	1013.4774	37.6808	-392.2738	1050.5064	47.7034	-328.4065	941.5693	773.3967	-749.4984	933.7808	666.9465	-748.9844	857.6978	777.7765	-742.9843	853.9514	667.8633	-735.7138	887.2834	528.3284	-727.2196	873.4503	419.6933	-756.2466	792.8732	422.8787	-743.4269	791.5499	312.957	-742.222	839.329	92.9659	-737.5118	785.3059	52.6152	-668.0081	926.7641	32.358	-791.9984	990.7295	36.3804	-696.4375	1030.951	45.7813	-765.4818	923.8377	502.9203	-470.8303	895.6767	99.8367	-434.3106	907.2499	502.6958	-618.697	874.191	105.3893	-654.4627
4	0.03	959.8549	1474.3496	-332.9182	900.9397	1470.3567	-758.458	1027.6661	1285.5741	-554.927	962.5396	1254.2405	-303.212	908.3851	1246.2579	-782.6385	904.8235	1133.022	-253.2741	849.2852	1128.1097	-813.4257	1026.4211	897.9468	-281.6357	977.1383	888.7471	-239.5075	969.5929	897.3281	-800.3807	918.0648	890.5385	-837.8184	1008.6692	1014.8246	-426.2172	814.7183	1047.7352	-478.9484	802.3271	1037.4427	-533.9589	803.8434	1045.5601	-604.6199	988.644	1013.1651	-679.2283	977.0757	766.6388	-343.734	895.0181	766.8694	-337.6981	894.2468	656.9302	-343.5868	921.6827	523.0642	-359.8154	887.8305	408.4981	-329.0332	885.9575	295.6221	-326.0601	811.7929	410.7464	-361.3418	808.9114	297.7879	-351.8013	859.3809	91.904	-349.4298	809.2661	56.1169	-423.7317	952.2549	32.7887	-297.8424	1013.4511	37.7109	-392.2404	1050.4853	47.7414	-328.3967	941.6156	773.4075	-749.4739	933.7905	666.9772	-748.967	857.6549	777.8422	-742.972	853.9521	667.8778	-735.6994	887.3079	528.2921	-727.1881	873.443	419.7231	-756.1985	792.8931	422.9241	-743.4275	791.5579	312.9715	-742.2114	839.3549	93.0002	-737.4756	785.321	52.6323	-668.0106	926.8093	32.3754	-792.0063	990.7482	36.4015	-696.4588	1030.9554	45.7737	-765.4518	923.8563	502.9505	-470.8222	895.7364	99.833	-434.3111	907.285	502.6816	-618.6982	874.2345	105.3613	-654.4799
